<?xml version="1.0" encoding="utf-8"?>
<!-- Generator: Adobe Illustrator 25.4.1, SVG Export Plug-In . SVG Version: 6.00 Build 0)  -->
<svg version="1.1" id="图层_1" xmlns="http://www.w3.org/2000/svg" xmlns:xlink="http://www.w3.org/1999/xlink" x="0px" y="0px"
	 viewBox="0 0 124.25 98.18" style="enable-background:new 0 0 124.25 98.18;" xml:space="preserve">
<style type="text/css">
	.st0{fill:#6E1E6F;}
	.st1{fill:#E5A823;}
	.st2{fill:#F1DEAE;}
</style>
<g>
	<path class="st0" d="M62.18,78.16c0.9,0,5.04-1.48,6.66-2.34c8.67-4.57,16.25-10.78,21.18-19.36c3.96-6.9,4.21-15.39,4.86-23.12
		c0.83-9.99,0.76-19.98,0.6-30.01c-0.01-0.72-14.35-2.3-15.82-2.43C73.86,0.36,66.07,0,62.18,0C58.29,0,50.51,0.36,44.7,0.9
		c-1.47,0.14-15.81,1.71-15.82,2.44c-0.16,10.02-0.24,20.02,0.6,30.01c0.65,7.73,0.9,16.23,4.86,23.12
		c4.94,8.57,12.51,14.78,21.18,19.36C57.14,76.68,61.29,78.16,62.18,78.16"/>
	<path class="st1" d="M81.76,41.38c0.03,0.01,0.07,0.01,0.1,0.01C81.82,41.39,81.79,41.38,81.76,41.38L81.76,41.38z M79.87,42.59
		c0.06,0.02,0.12,0.05,0.17,0.07C79.99,42.63,79.94,42.6,79.87,42.59L79.87,42.59z M91.08,24.31c0,0,0.03-0.5,0.05-0.53
		c0.37-0.12,1.99-0.77,2.29-2.82c0.04-0.32,0.05-0.67,0.03-1.06l-0.09,0.08c-0.32,0.3-1.3,1.23-1.84,1.11
		c-0.14-0.03-0.24-0.12-0.3-0.29c0-2.05-0.16-3.68-0.37-5.78c0.58-0.32,1.81-1.23,1.8-3.16c0-0.26-0.03-0.53-0.08-0.83l-0.1,0.11
		c-0.32,0.37-1.16,1.34-1.66,1.28c-0.12-0.02-0.21-0.09-0.27-0.22l-0.03-0.27c-0.4-4.35-1.3-6.5-3.08-7.41c0,0-0.11-0.04-0.11-0.05
		c0,0.03,0.09,0.17,0.18,0.3c0.26,0.39,0.7,1.03,0.86,1.79c0.29,1.29,0.39,2.34,0.39,3.19c0,0.99-0.14,1.72-0.29,2.31
		c-0.24,0.43-0.57,0.7-1,0.8c-0.98,0.23-2.1-0.85-2.47-1.74c-0.01-0.03-0.03-0.06-0.06-0.06c-0.08,0-0.21,0.24-0.29,0.4
		c-0.32,1.16,0.07,2.62,0.86,3.18c0.29,0.21,0.75,0.38,1.31,0c0.29-0.19,0.5-0.26,0.65-0.22c0.08,0.02,0.14,0.08,0.17,0.19
		c-0.37,1.04-0.79,2.08-1.27,3.12c-0.27,0.24-0.57,0.37-0.89,0.39c-1.1,0.07-2.03-1.29-2.25-2.26c-0.01-0.04-0.02-0.07-0.05-0.07
		c-0.08-0.02-0.27,0.21-0.38,0.37c-0.56,1.15-0.43,2.73,0.27,3.46c0.26,0.27,0.72,0.53,1.38,0.24c0.34-0.15,0.57-0.19,0.71-0.12
		c0.06,0.03,0.11,0.09,0.12,0.19c-0.54,1.01-1.14,2.02-1.78,3.01c-0.24,0.16-0.51,0.23-0.81,0.23c-1.17-0.01-1.94-1.36-2.03-2.29
		c0-0.03-0.01-0.06-0.03-0.06c-0.08-0.03-0.31,0.19-0.45,0.34c-0.72,1.09-0.84,2.6-0.23,3.36c0.33,0.43,0.85,0.54,1.45,0.33
		c0.37-0.14,0.6-0.16,0.69-0.09c0.04,0.02,0.07,0.07,0.06,0.14c-0.63,0.85-1.3,1.69-2,2.5c-0.46,0.31-0.93,0.42-1.42,0.35
		c-1.24-0.19-2.01-1.97-2.01-3.15c0-0.06-0.01-0.09-0.03-0.1c-0.1-0.04-0.38,0.18-0.53,0.33c-0.94,1.18-1.19,3.04-0.57,4.07
		c0.24,0.38,0.69,0.8,1.53,0.63c0.44-0.09,0.7-0.08,0.78,0.04c0.05,0.07,0.03,0.17-0.04,0.3c0,0-2.03,1.88-2.04,1.88
		c-0.51,0.32-1.28,0.64-2.09,0.34c-1.36-0.49-1.85-2.67-1.59-4.02c0.01-0.07,0-0.1-0.03-0.13c-0.11-0.07-0.48,0.12-0.68,0.26
		c-1.32,1.14-2.01,3.21-1.51,4.51c0.19,0.48,0.61,1.06,1.61,1.05c0.55-0.01,0.84,0.07,0.9,0.24c0.05,0.14-0.07,0.32-0.38,0.57
		c-0.27,0.15-0.59,0.36-0.85,0.68c-0.6,0.74-0.88,1.33-0.95,2.06l-0.06,0.74c-0.04,0.58-0.08,1.18-0.21,1.76
		c-0.11,0.55-0.28,1.04-0.51,1.45c-1.27,2.31-4.23,3.51-7.34,3.96v-4.33c3.78-0.11,5.41-1.76,5.41-5.46c0-3.15-1.14-4.52-3.8-4.58
		c-0.53-0.01-1.09,0.08-1.61,0.26v-2.41c1.89-0.86,4.04-1.83,6.28-2.4c5.14-1.31,9.28-4.15,10.72-7.18c0.2-0.44,0.35-0.88,0.43-1.34
		c-0.28,0.18-3.71,2.35-6.28,2.91l-0.35,0.06c-0.34,0.07-0.71,0.14-0.89-0.02c-0.09-0.07-0.13-0.18-0.13-0.34
		c0-1.39,0.76-2.47,2.16-3.06l0.14-0.06c3.11-1.32,5.54-2.35,6.71-3.97c0.3-0.43,0.52-0.9,0.64-1.42c-0.26,0.14-3.87,2.05-6.2,2.37
		l-0.12,0.02c-0.28,0.05-0.75,0.13-0.97-0.11c-0.13-0.14-0.15-0.36-0.08-0.68c0.27-1.06,0.72-1.68,1.55-2.16
		c0.91-0.52,1.89-0.96,2.85-1.38c1.61-0.72,3.04-1.36,3.77-2.21c0.04-0.05,0.08-0.09,0.11-0.15c0.01-0.01,0.02-0.02,0.03-0.04
		c0.13-0.2,0.22-0.41,0.28-0.63l-3.38,1.07l-0.67,0.2c-0.97,0.31-1.97,0.62-2.29,0.3c-0.12-0.12-0.14-0.31-0.05-0.58
		c0.17-0.58,0.32-0.91,0.59-1.3c1.27-1.8,3.84-3.72,6.92-3.17c0.51,0.1,0.77,0.06,0.79,0c0.01-0.03-0.08-0.13-0.48-0.28
		c-2.32-0.85-4.49-0.77-6.44,0.23c-3.57,1.82-6.5,6.74-8.73,14.61c-1.27,4.5-4.05,6.12-6.9,7.41V15.34c1.04-0.42,1.94-1,2.71-1.77
		c2.17-2.17,2.94-4.88,2.06-7.24c-0.71-1.91-2.41-3.24-4.31-3.37c-0.16-0.01-0.31-0.02-0.46-0.02V1.49
		c-3.57,0-10.96,0.33-16.72,0.87c-2.07,0.2-15.11,1.69-15.12,2.32c-0.06,3.41-0.1,6.78-0.1,10.14c0,6.27,0.16,12.48,0.67,18.71
		l0.19,2.43c0.53,6.82,1.08,13.88,4.46,19.78c4.28,7.49,11.11,13.75,20.28,18.61c0.57,0.3,3.2,1.65,5.4,2.12c0.01,0,0.02,0,0.03,0
		c0.1,0.03,0.19,0.04,0.29,0.06c0.21,0.03,0.42,0.07,0.61,0.08V65.86c3.05,0.05,7.8,0.08,9.06-0.36c1.22-0.42,2-1.35,2.2-2.62
		c0.23-1.47-0.36-3.12-1.41-3.92c-0.15-0.11-0.35-0.13-0.4-0.05c-0.04,0.05-0.02,0.1,0.05,0.23c0.11,0.2,0.3,0.54,0.3,1.24
		c0,0.64-0.22,1.17-0.66,1.58c-1.18,1.11-3.6,0.96-3.62,0.96l-2.79-0.03h-2.71c0.03-0.01,0.06-0.02,0.1-0.03h-0.1
		c1.57-0.37,2.68-1.5,3.16-2.37c1.2-2.18,0.19-3.63-0.12-4.05c-0.06-0.06-0.1-0.1-0.1-0.1h0.02c-0.01-0.02-0.02-0.02-0.02-0.02
		c0.19,0,0.37-0.01,0.55-0.02c-0.17,0.01-0.35,0.03-0.53,0.02c0,0,0.01,0.01,0.02,0.02c0.71,0,1.36-0.08,1.94-0.21
		c-0.44,0.09-0.9,0.14-1.4,0.17c5.79-0.33,7.02-5.56,7.68-8.41l0.12-0.47c0.21-0.85,0.74-2.33,2.02-2.73
		c0.81-0.26,1.35-0.56,1.74-0.79l0.47-0.25c0,0,0.16-0.06,0.17-0.07c0.73,0.03,0.71,0.64,0.7,1.05c0,0.17-0.01,0.33,0.05,0.36
		c0.03,0.02,0.08,0,0.17-0.05c0.62-0.39,0.94-1.55,1.02-2.22c0-0.05,0.01-0.1,0.01-0.14l0,0l0.01-0.03c0.79,0.28,0.87,0.75,0.91,1
		c0.01,0.07,0.02,0.13,0.04,0.14c0.02,0.01,0.09-0.03,0.2-0.12c0.58-0.47,0.71-1.54,0.72-2.16v-0.03c0-0.01,0-0.02,0-0.02
		c0.97,0.06,1.07,0.61,1.11,0.88c0.01,0.06,0.02,0.13,0.04,0.14c0,0,0.04,0,0.16-0.13c0.51-0.53,0.51-1.67,0.49-2.17
		c0-0.02,0-0.05-0.01-0.07h0v-0.02c0.63,0.05,0.77,0.52,0.86,0.81c0.03,0.1,0.06,0.2,0.09,0.2c0.01,0,0.06-0.01,0.15-0.13
		c0.58-0.74,0.54-1.85,0.46-2.26c-0.01-0.03-0.02-0.07-0.03-0.09l0.01,0c0-0.01,0-0.02,0-0.02c0.65,0.03,0.79,0.45,0.88,0.69
		c0.03,0.09,0.06,0.16,0.08,0.17c0.02,0,0.07-0.02,0.17-0.15c0.46-0.59,0.42-1.72,0.3-2.33c0.85-1,1.38-1.86,1.53-2.49
		c0.12-0.47,0.19-0.53,0.24-0.53c0.1,0.01,0.12,0.28,0.13,0.44c-0.13,1.53-0.45,3.48-0.91,5.49c0,0.01-0.01,0.03-0.01,0.03
		c0,0.01-0.01,0.03-0.01,0.05c-0.06,0.28-0.12,0.56-0.19,0.85c0,0-0.01-0.01-0.01-0.01c0,0.01-0.01,0.03-0.01,0.03
		c-0.29-0.27-1.01-0.36-1.17-0.19c-0.08,0.08,0.01,0.2,0.09,0.29c0.31,0.32,0.48,0.94,0.5,1.49c0.01,0.08,0.02,0.17,0.02,0.24
		l-0.02-0.01c0,0.01,0,0.02,0,0.02c-0.35-0.17-0.92-0.21-1.03-0.06c-0.06,0.07,0.02,0.19,0.1,0.28c0.37,0.38,0.49,1.18,0.43,1.77
		c-0.01,0.1-0.01,0.2-0.03,0.28c0,0-0.01-0.01-0.01-0.01c0,0.01,0,0.02,0,0.03c-0.28-0.27-1.01-0.37-1.18-0.2
		c-0.08,0.08,0.01,0.2,0.09,0.29c0.32,0.33,0.4,1.23,0.33,1.83c-0.01,0.11-0.02,0.2-0.02,0.28c-0.01,0-0.01-0.01-0.02-0.01
		c0,0.01,0,0.03,0,0.04c-0.33-0.29-0.89-0.46-1.01-0.35c-0.05,0.05-0.02,0.16,0.08,0.31c0.41,0.6,0.28,1.73,0.15,2.15
		c-1.86,4.13-3.93,6.24-6.15,6.29c-1.81,0.04-2.78-1.58-2.9-2.74c-0.16-1.68,1.44-2.8,2.41-3.19c0.7-0.29,1.14,0.11,1.3,0.29
		c0.57,0.68,0.5,1.15,0.33,1.43c-0.21,0.36-0.7,0.54-1.02,0.49c-0.53-0.1-0.96,0.1-1.14,0.53c-0.17,0.42-0.06,0.88,0.27,1.12
		c0.54,0.37,1.23,0.4,1.96,0.07c0.91-0.41,1.7-1.3,1.78-2.04c0.15-0.65-0.09-1.93-0.6-2.46c-1.14-1.54-2.57-2-3.83-1.22
		c-2.24,1.39-3.5,2.97-3.64,4.58c-0.12,1.46,0.67,2.96,2.36,4.44c2.01,1.76,5.26,0.68,6.71-0.88c0,0,0.17-0.13,0.2-0.13
		c0.38,0.14,2.16,0.68,3.75-0.87c0.19-0.2,0.39-0.42,0.57-0.69l-0.15,0.01c-0.47,0.05-1.74,0.18-2.04-0.23
		c-0.08-0.11-0.09-0.25-0.01-0.43c0.92-1.26,1.76-2.86,2.52-4.78c0.39-0.03,2.13-0.25,2.93-2.17c0.12-0.29,0.22-0.63,0.29-1
		l-0.14,0.07c-0.44,0.26-1.63,0.93-2.01,0.63c-0.13-0.1-0.15-0.29-0.08-0.57c0.45-1.54,0.85-3.26,1.22-5.12
		c0.54-0.08,2.19-0.53,2.7-2.66c0.06-0.26,0.1-0.54,0.12-0.85l-0.12,0.08c-0.41,0.28-1.51,1.02-2,0.81
		c-0.12-0.05-0.2-0.16-0.23-0.33c0.25-1.65,0.46-3.44,0.66-5.34c0.25-0.08,2.4-0.78,2.4-3.53c0-0.09-0.01-0.19-0.01-0.29
		c-0.03,0.03-0.07,0.06-0.07,0.06c-0.37,0.33-1.33,1.22-1.84,1.09c-0.13-0.03-0.21-0.12-0.27-0.28l0.22-4.41L91.08,24.31z
		 M62.15,4.44c1.7,0.6,2.63,2,2.48,3.78c-0.14,1.71-1.25,3.25-2.48,3.44C62.15,11.66,62.15,4.44,62.15,4.44z M62.15,32.55
		c0.2-0.02,0.42-0.04,0.66-0.03c1.68,0,2.42,0.79,2.42,2.56c0,1.27-0.38,2.56-3.08,2.68C62.15,37.76,62.15,32.55,62.15,32.55z
		 M70.13,46.28L70.13,46.28c-1.09,1.82-2.46,2.94-5.92,2.94c0,0-0.89,0-2.06,0v-1.9H64c2.83,0,4.77-0.38,5.59-1.1
		c0.38-0.33,0.49-0.32,0.54-0.28C70.24,46,70.15,46.24,70.13,46.28 M89.05,18.69l-0.06,0.83c-0.77,11.89-4.46,16.18-7.97,18.82
		l-0.13,0.1c-1.11,0.83-2.36,1.76-4.66,2.53l-0.07,0.02c-0.43,0.14-1.75,0.56-2.1,1.17c-0.33,0.58-0.44,0.62-0.5,0.59
		c-0.14-0.08,0.13-0.87,0.23-1.05c0.26-0.49,0.69-0.75,1.52-1.14c1.57-0.74,1.78-1.68,1.76-2.17c-0.03-0.7-0.51-1.37-1.18-1.62
		c-0.51-0.2-1.01-0.09-1.32,0.27c0.14,0.06,0.5,0.22,0.56,0.81c0.08,0.89-0.39,1.26-0.81,1.31c-0.5,0.06-1.08-0.28-1.18-0.96
		c-0.18-1.26,0.49-2.07,0.91-2.35c0.52-0.34,0.84-0.46,1.22-0.58c0,0,0.65-0.25,0.66-0.25c1.05-0.18,1.78,0.39,2.17,0.7
		c0.14,0.12,0.27,0.21,0.32,0.2l0.06-0.06c0.15-0.31-0.06-1.53-0.32-2.19l0.02-0.06l0.04,0c0.96-0.13,1.45,0.52,1.75,0.9
		c0.1,0.13,0.19,0.26,0.24,0.24c0.02-0.01,0.04-0.03,0.06-0.08c0.12-0.37-0.21-1.71-0.51-2.35c-0.01-0.02-0.02-0.04-0.03-0.05l0,0
		c0-0.01,0-0.02-0.01-0.03c0.97-0.29,1.58,0.26,1.9,0.54c0.12,0.11,0.23,0.2,0.27,0.18l0.05-0.07c0.1-0.36-0.34-1.61-0.71-2.23
		c0,0,0.19-0.2,0.19-0.21c0.94-0.37,1.55,0.01,1.91,0.24c0.14,0.08,0.25,0.15,0.3,0.12l0.05-0.08c0.08-0.35-0.38-1.5-0.75-2.04
		c0,0,0.18-0.23,0.19-0.24c0.75-0.25,1.33-0.06,1.68,0.05c0.15,0.05,0.26,0.09,0.31,0.06c0.02-0.01,0.04-0.04,0.05-0.09
		c0.04-0.33-0.4-1.36-0.74-1.74c0,0,0.16-0.22,0.18-0.23c0.7-0.24,1.24-0.07,1.56,0.04l0.28,0.06c0.03-0.02,0.04-0.06,0.04-0.14
		c0-0.41-0.43-1.41-0.69-1.66c0,0-0.01,0-0.01-0.01h0c0,0-0.01-0.02-0.02-0.02c0.68-0.57,1.32-0.53,1.66-0.51l0.26-0.02
		c0.02-0.01,0.02-0.03,0.02-0.07c-0.01-0.27-0.5-0.99-0.85-1.26c0.81-1.51,1.39-2.92,1.71-4.2c0.41-1.61,0.48-1.6,0.53-1.59
		C89.15,17.11,89.14,17.44,89.05,18.69 M79.74,32.24c0.05-0.01,0.09-0.02,0.14-0.03C79.84,32.21,79.79,32.21,79.74,32.24
		L79.74,32.24z M85.78,24.76c0.09-0.08,0.18-0.14,0.28-0.19C85.96,24.62,85.86,24.68,85.78,24.76L85.78,24.76 M86.02,44.75
		c0.04,0.03,0.07,0.06,0.1,0.09v-0.02C86.09,44.8,86.06,44.77,86.02,44.75 M81.6,11.8c0,0-0.1,0.05-0.25,0.13
		c0.12-0.05,0.2-0.09,0.24-0.11C81.59,11.82,81.59,11.81,81.6,11.8 M82.8,6.86L82.8,6.86c0-0.01-0.03,0-0.1,0.02
		C82.75,6.87,82.78,6.86,82.8,6.86 M79.6,17.72c0,0-0.1,0.06-0.26,0.16c0.12-0.07,0.21-0.12,0.25-0.14
		C79.6,17.73,79.6,17.72,79.6,17.72 M63.05,62.58c-0.27,0.11-0.56,0.21-0.87,0.27h0.1C62.55,62.79,62.81,62.69,63.05,62.58
		 M85.32,38.56c-0.07-0.02-0.15-0.05-0.25-0.06c0,0.01,0,0.01,0,0.02C85.17,38.53,85.25,38.54,85.32,38.56 M85.22,46.97
		c0.04,0.03,0.07,0.07,0.1,0.1v-0.02C85.29,47.02,85.26,47,85.22,46.97 M86.55,42.5c0.04,0.02,0.07,0.04,0.11,0.06v-0.01
		C86.63,42.53,86.59,42.52,86.55,42.5 M87.15,40.63c0.04,0.03,0.07,0.05,0.09,0.08c0.01,0,0.01-0.01,0.01-0.01
		C87.22,40.67,87.18,40.65,87.15,40.63 M83.55,40.01L83.55,40.01c0.04,0.01,0.08,0.02,0.11,0.03C83.63,40.03,83.6,40.02,83.55,40.01
		"/>
	<path class="st0" d="M61.11,11.38c-0.31-0.32-0.29-1.75-0.28-1.77c0-1.85-1.55-2.5-2.87-2.5c-1.42,0-2.88,0.74-2.88,1.99l0.01,4.7
		c0,0.25-0.08,0.45-0.24,0.59c-0.14,0.12-0.33,0.18-0.55,0.18c-0.44,0-0.88-0.27-0.88-0.72v-2.53c0-2.88-3.22-3.31-5.14-3.31
		c-2.75,0-5.67,1.23-5.67,3.5l0,1.26l0,10.36c0.02,0.62-0.38,1.07-0.73,1.27c-0.3,0.17-0.61,0.19-0.83,0.05
		c-0.19-0.12-0.41-0.42-0.35-1.14c0.01-0.09-0.04-0.17-0.11-0.18c-0.1-0.02-0.25,0.05-0.37,0.34c-0.33,0.86-0.31,1.65,0.06,2.36
		c0.47,0.91,1.42,1.42,1.93,1.54l-0.02,1.61h-0.01c-1.83-0.03-4.03-0.74-4.03-4.06V8.9c0-2.44-1.02-3.27-1.87-3.54
		c-1.57-0.48-3.61,0.57-4.48,1.83c-0.9,1.32-0.64,2.51-0.09,3.19c0.62,0.77,1.66,1.02,2.59,0.63c0.02-0.01,0.18-0.12,0.17-0.23
		c-0.01-0.07-0.08-0.11-0.21-0.14c-0.62-0.1-1-0.52-1-1.13c0-0.67,0.58-1.23,1.28-1.23c0.69,0,1.25,0.56,1.25,1.23v2.35l0.01,13.77
		c-1.86-0.03-2.37,1.49-2.37,2.38c0,1.41,0.99,1.94,1.03,1.96c0.04,0.03,0.14,0.02,0.2-0.04c0.04-0.04,0.08-0.14,0-0.31
		c-0.23-0.47-0.25-0.87-0.03-1.17c0.28-0.39,0.88-0.54,1.33-0.48c0.29,0.04,0.48,0.16,0.54,0.32c0.69,1.94,2.46,2.92,5.44,3.01
		c0.06,0,0.17,0.07,0.28,0.17l-0.01,0.88c-0.92,0.39-2.94,1.72-2.85,5.55c0.06,2.92,0.64,7,1.19,7.41c0.05,0.04,0.1,0.05,0.15,0.04
		c2.47-0.69,6.15-0.73,8.01,0.37c0.26,0.15,0.4,0.34,0.38,0.51c-0.01,0.1-0.07,0.17-0.15,0.2c-0.09,0.04-0.19,0.01-0.27-0.07
		c-0.81-0.81-3.11-0.91-3.79-0.92c-2.58-0.04-7.85,0.75-9.41,4.04c-0.89,1.89,0.91,5.7,1.88,6.91c0.06,0.08,0.19,0.08,0.28,0.04
		c0.08-0.03,0.12-0.09,0.1-0.15c-0.37-1.89,0.37-3.75,2.11-5.24c2.11-1.81,5.19-2.64,7.16-1.93c0.26,0.1,0.44,0.26,0.46,0.44
		c0.01,0.08-0.01,0.16-0.06,0.21c-0.05,0.03-0.11,0.04-0.19,0.01c-2.57-1.11-5.2,0.58-5.23,0.59c1.12,6.68,9.24,6.51,15.17,6.39
		l2.03-0.03c0,0.02,2.27,2.25,1.96,4.14c-0.12,0.76-0.65,1.37-1.55,1.8c-0.91,0.44-4.53,0.22-4.9-0.09
		c-0.2-0.16-0.28-0.64-0.21-1.21c0.12-0.9,0.66-2.12,1.78-2.6c0.12-0.03,0.18-0.08,0.17-0.15c-0.03-0.14-0.41-0.24-0.67-0.21
		c-2.07,0.26-3.56,1.3-4.08,2.87c-0.12,0.35-0.17,0.51-0.17,0.88c-0.06,0.65-0.21,0.67-1.07,0.76l-0.46,0.05
		c-1.64,0.2-2.56,0.98-2.76,2.32c-0.15,1.06,0.17,2.12,0.9,2.93c0.6,0.67,1.38,1.03,2.13,1c0.04,0,0.12-0.04,0.13-0.11
		c0.02-0.06,0-0.16-0.19-0.27c-0.92-0.53-1.16-1.39-0.99-2.01c0.18-0.68,0.83-1.09,1.7-1.08c0.01,0,0.37-0.01,0.38,0.26l0,0.25
		l0.06,0.75c0.35,2.02,1.89,3.78,3.74,4.29c0.07,0.02,0.21-0.04,0.25-0.13c0.03-0.08,0-0.2-0.31-0.33
		c-0.98-0.73-1.34-2.17-1.34-3.28c-0.01-0.74,0.15-1.35,0.37-1.52c0.41-0.32,1.93-0.52,2.68,0.24c0.75,0.75,1.08,1.43,0.95,1.93
		c-0.09,0.32-0.39,0.56-0.86,0.69c-0.06,0.01-0.09,0.12-0.08,0.19c0.01,0.04,0.05,0.16,0.23,0.13c1.98-0.29,2.68-1.85,2.67-3.09
		c-0.01-0.01-0.03-0.08,0.02-0.13c0.04-0.05,0.12-0.08,0.25-0.08l1.46,0.02c0.24,0,0.52,0.01,0.79,0.01V49.15l-5.57-0.01
		c-1.29,0-1.79,0.56-1.82,1.1c-0.05,0.69,0.69,1.53,2.13,1.71c0.09,0.01,0.32,0.15,0.31,0.23c0,0.03-0.03,0.09-0.33,0.1
		c-0.96,0.01-2.95,0.04-3.67-1.13c-0.44-0.72-0.47-1.64-0.07-2.35c0.51-0.92,1.67-1.42,3.25-1.42h5.77v-2.24
		c-2.89,0.43-5.93,0.19-7.84-0.43c-3.59-1.17-6.59-4.46-5.37-8.47c0.17-0.56,0.56-1.13,1.19-1.77c0.79-0.78,1.57-0.8,1.83-0.81
		c0.11,0.02,0.18,0,0.21-0.05c0.06-0.13-0.16-0.37-0.17-0.38c-1.25-1.48-6.45-1.92-7.48-1.49c-0.03,0.01-0.06-0.03-0.08-0.06
		c-0.42-0.76-0.57-5.67,1.29-6.97c0.77-0.53,1.59-0.73,2.17-0.53c0.48,0.17,0.82,0.58,1.01,1.24c0.22,0.77,0,1.67-0.51,2
		c-0.37,0.25-0.85,0.16-1.35-0.24c-0.14-0.11-0.19-0.28-0.25-0.42l-0.06-0.16c-0.05-0.11-0.14-0.23-0.23-0.22
		c-0.03,0-0.07,0.01-0.08,0.08c-0.07,1.56,0.54,2.7,1.7,3.12c1.99,0.73,4.17-0.04,5.54-1.95c1.27-1.78,1.8-4.78,0.56-5.83
		c-0.09-0.07-0.15-0.09-0.2-0.06c-0.11,0.06-0.06,0.34-0.05,0.39c0.01,1.67-1.07,2.87-2.13,3.06c-0.9,0.17-1.66-0.39-2.09-1.52
		c0,0,0.03-0.25,0.31-0.22c0.92,0.08,1.58-0.25,1.91-0.96c0.42-0.89,0.07-2.14-0.81-2.89c-0.03-0.01-0.22-0.06-0.29,0
		c-0.02,0.02-0.04,0.04-0.03,0.09c0.13,1.09-0.16,1.79-0.79,1.91c-0.58,0.11-1.27-0.31-1.43-0.86c-0.17-0.6,0.32-1.15,1.33-1.52
		c0.06-0.02,0.07-0.05,0.08-0.08c0.02-0.08-0.07-0.18-0.08-0.2c-1.33-0.44-2.74,0.03-3.23,1.08c-0.32,0.69-0.02,1.92,0.73,2.28
		c0,0,0.03,0.05-0.02,0.12c-0.15,0.21-0.85,0.48-1.5,0.28c-0.47-0.15-1.04-0.59-1.04-1.87v-7.68c0-0.79,0.87-1.21,1.73-1.28
		c0.85-0.07,1.82,0.19,1.94,0.95c0.16,0.96,0.03,1.21-0.27,1.36c-0.59,0.28-1.1-0.18-1.1-0.18c-0.01,0.01-0.01,0.02-0.01,0.02
		l-0.01-0.01c-0.01,0.01-0.01,0.03-0.01,0.03c-0.09,0.19-0.08,0.38,0.02,0.56c0.21,0.4,0.78,0.74,1.44,0.85
		c0.65,0.11,1.15,0.04,1.46-0.23c0.24-0.2,0.37-0.53,0.37-0.93v-1.25c0-0.58,0.32-0.85,0.61-0.87c0.26-0.01,0.55,0.18,0.6,0.64
		l0.02,1.65l-0.02,2.73c0,1.96,1.53,2.86,2.96,2.86c1.43,0,2.87-0.92,2.87-2.66v-4.05c0-0.75,0.31-1.22,0.81-1.27
		c0.51-0.05,1.15,0.38,1.31,1.16c0.17,0.89,0.1,1.03-0.14,1.49l-0.13,0.26l-0.1,0.2c-0.23,0.47-0.33,0.68-0.26,0.79
		c0.06,0.08,0.21,0.08,0.51,0.05c0.98-0.12,1.85-0.34,2.65-0.66v-3.8c-0.01,0-0.03,0.01-0.05,0.01
		C61.78,11.65,61.41,11.68,61.11,11.38 M46.05,36.21c0,1.18-1.01,2.15-2.25,2.15c-1.24,0-2.25-0.96-2.25-2.15
		c0-1.18,1.01-2.13,2.25-2.13C45.04,34.07,46.05,35.03,46.05,36.21 M47.24,14.05L47.24,14.05L47.24,14.05
		C47.24,14.05,47.24,14.05,47.24,14.05 M42.36,36.21c0,0.76,0.65,1.37,1.44,1.37c0.79,0,1.44-0.62,1.44-1.37
		c0-0.75-0.65-1.36-1.44-1.36C43.01,34.84,42.36,35.45,42.36,36.21 M57.6,4.68c-0.22,0.29-0.41,0.63-0.31,0.71
		c0.05,0.05,0.15,0,0.29-0.12c1.26-1.08,2.74-1.36,4.4-0.84c0.08,0.03,0.14,0.06,0.21,0.08V2.88C59.27,2.81,57.95,4.22,57.6,4.68
		 M55.07,29.82c-0.62,0.82-0.94,2.75-0.94,5.74c0,4.73,3.65,5.38,7.6,5.38c0.15,0,0.3-0.01,0.45-0.01V37.7
		c-0.15,0-0.29,0.01-0.45,0.01c-3.34,0-4.6-0.25-4.6-2.93c0-3.17,1.45-4.45,3.62-5.4l1.4-0.62c0,0,0.02-0.01,0.03-0.01v-3.43
		c-0.36,0.16-0.72,0.32-1.08,0.47C58.92,26.72,56.67,27.7,55.07,29.82 M39.35,43.88h0.04l0.05-0.03l-0.53-3.58
		c0-0.19,0-0.33-0.09-0.4c-0.1-0.07-0.28-0.06-0.65,0.06c-5.06,1.66-5.08,3.57-4.67,7.09c0.03,0.23,0.35,0.65,0.47,0.65l0.02,0
		l0.03-0.05c0.06-0.31,0.25-0.74,0.34-0.89C35.84,44.11,38.34,43.86,39.35,43.88 M39.38,43.85L39.38,43.85c-0.06,0-0.12,0-0.18,0
		H39.38 M59.39,34.46c-0.05,0.21,0.04,0.44,0.19,0.5c0.06,0.02,0.22,0.04,0.38-0.24l0.15-0.35c0.34-0.85,0.64-1.6,2.07-1.76v-1.6
		C60.8,31.47,59.6,32.58,59.39,34.46"/>
	<path class="st2" d="M123.54,84.79c-0.24-3-2.78-5.1-14.8-2.31c-0.05-1.37-0.11-2.59-0.13-3.18c-0.1-2.31-2.56-3.57-7.54-3.41
		c-2.46,0.08-3.76,0.18-4.69,0.31c-3.34-2.59-4.34-6.69-4.15-10.39l4.83-5.57c1.29-1-3.03-5.4-7.22-4.16l-8.22,10.82
		c0.13-0.11,0.26-0.2,0.39-0.29c-1.99,2.53-1.85,7.34,1.01,12.12c-6.76,1.12-14.47,2.2-19.94,2.2c-0.31,0-0.64,0-0.97-0.01
		c-0.33,0.01-0.65,0.01-0.96,0.01c-5.47,0-13.17-1.08-19.94-2.2c2.86-4.78,3.01-9.6,1.02-12.12c0.13,0.09,0.26,0.18,0.39,0.29
		l-8.22-10.82c-4.19-1.24-8.51,3.16-7.22,4.16l4.84,5.57c0.19,3.69-0.81,7.8-4.15,10.39c-0.92-0.13-2.23-0.23-4.68-0.31
		c-4.98-0.16-7.44,1.11-7.55,3.41c-0.03,0.6-0.08,1.81-0.13,3.18C3.5,79.69,0.96,81.79,0.72,84.79c-0.19,2.46-0.28,7.25,0,9.02
		c0.28,1.77,2.92,3.08,5.77,3.57c6.57,1.12,19.06-0.32,28.67-8.82c6.05,1.41,13.42,3.19,26.01,3.19c0.33,0,0.64-0.01,0.96-0.01
		c0.32,0,0.64,0.01,0.97,0.01c12.59,0,19.96-1.78,26.01-3.19c9.6,8.5,22.09,9.94,28.67,8.82c2.85-0.49,5.49-1.8,5.77-3.57
		C123.82,92.04,123.73,87.24,123.54,84.79"/>
	<path class="st0" d="M27.75,80.48c-0.24,0.57-0.89,4.22-0.97,5c0.19,0,0.5,0.04,0.53-0.02c0.71-1.68,1.07-3.44,1.22-5.25
		C28.23,80.21,27.89,80.13,27.75,80.48 M31.14,80.49c0.2,0.83-0.04,4.95,0.59,6.14c0.15,0.25,0.5-0.06,0.53-0.28
		c0.28-1.99,0.04-3.86-0.35-5.83C31.91,80.46,31.43,80.49,31.14,80.49 M32.29,79.26c0.05-0.01,0.08-0.4-0.02-0.48
		c-1.38-1.19-3.07-0.57-4.62-0.57c-0.41,0.01-0.26,0.5-0.29,0.82c0.2,0,0.39,0.02,0.58,0C29.45,78.83,30.8,79.58,32.29,79.26
		 M124.07,84.75c-0.1-1.31-0.6-2.27-1.53-2.94c-2.09-1.52-6.33-1.49-13.31,0.08c-0.03-0.71-0.06-1.49-0.1-2.35l-0.01-0.26
		c-0.08-1.88-1.54-4.08-8.04-3.87c-2.28,0.07-3.58,0.16-4.51,0.28c-1.72-1.39-2.68-3.13-3.2-4.71c-0.53-1.61-0.7-3.34-0.64-4.98
		l4.72-5.44c0.25-0.21,0.62-0.74,0.11-1.74c-0.86-1.67-4.31-4.25-7.82-3.21c-0.1,0.03-0.19,0.09-0.25,0.17l-8.22,10.82
		c-0.09,0.12-0.11,0.27-0.07,0.41c-0.26,0.46-0.49,0.96-0.65,1.52c-0.23,0.81-0.34,1.68-0.34,2.57c0,2.29,0.74,4.81,2.1,7.25
		c-6.61,1.08-13.93,2.08-19.2,2.08c-0.31,0-0.64-0.01-0.97-0.02c-0.32,0.01-0.65,0.02-0.96,0.02c-5.28,0-12.6-1-19.2-2.08
		c1.35-2.44,2.1-4.96,2.1-7.25c0-0.9-0.11-1.76-0.35-2.57c-0.16-0.56-0.38-1.06-0.65-1.52c0.04-0.14,0.01-0.29-0.08-0.41
		l-8.22-10.82c-0.06-0.08-0.15-0.14-0.25-0.17c-3.52-1.04-6.96,1.54-7.83,3.21c-0.52,1-0.13,1.53,0.12,1.74l4.71,5.44
		c0.06,1.64-0.11,3.37-0.64,4.98c-0.52,1.58-1.48,3.32-3.21,4.71c-0.93-0.12-2.23-0.21-4.52-0.28c-6.49-0.21-7.96,1.99-8.04,3.87
		l-0.01,0.26c-0.04,0.86-0.07,1.63-0.1,2.35c-6.97-1.57-11.22-1.59-13.3-0.08c-0.93,0.67-1.42,1.64-1.53,2.94
		c-0.19,2.42-0.29,7.3,0,9.14c0.35,2.21,3.55,3.52,6.17,3.97c5.61,0.96,18.57,0.26,28.9-8.77c0.04,0.01,0.07,0.02,0.1,0.03
		c5.96,1.39,13.38,3.12,25.8,3.12c0.33,0,0.64-0.01,0.96-0.01c0.32,0,0.64,0.01,0.97,0.01c12.42,0,19.84-1.73,25.8-3.12
		c0.03-0.01,0.07-0.02,0.11-0.03c10.33,9.04,23.29,9.74,28.9,8.77c2.63-0.45,5.82-1.76,6.17-3.97
		C124.36,92.04,124.26,87.17,124.07,84.75 M101.12,76.36c3.15-0.1,6.93,0.33,7.05,2.96l0.01,0.26c0.16,3.59,0.21,5.74,0.21,7.03
		c0,0.5-0.01,0.84-0.02,1.1c-0.86-0.63-1.96-0.81-3.3-0.99c-4.17-0.59-7.52-0.33-10.95,0.28l-0.05-0.34
		c0.12-0.27-0.68-4.33-0.56-4.5c0.3-0.44,1.69,0.03,1.67-0.83c-0.02-0.75-1.21-0.41-1.78-0.47c-0.21-0.02-0.21-0.05-0.24-0.24
		c-0.06-0.32-0.39-1.87-0.65-2.12c-0.24-0.23-0.61-0.02-0.69,0.28c-0.14,0.48,0.64,2.38,0.33,2.39c-0.77,0.04-1.57,0.71-1.62,0.53
		c-0.14-0.38-0.15-0.97-0.43-1.35c-0.37-0.52-1.66-0.16-1.68-0.4c-0.03-0.57,0.36-0.52,0.6-0.65c0.16-0.08,0.32-0.19,0.35-0.39
		c0.04-0.23,0.05-0.56-0.08-0.76c0.43-0.08,0.86-0.15,1.27-0.22l0.84-0.15c1.69-0.29,2.6-0.53,3.32-0.72
		C96.06,76.69,96.8,76.5,101.12,76.36 M108,89.82c-0.53,0.58-2.1,0.47-3.5,0.37c-1.38-0.1-2.69-0.19-3.48,0.3
		c-0.01-0.22-0.01-0.45-0.01-0.69c0.04-1.28,0.32-2.17,0.6-2.43c1.06,0.04,2.15,0.14,3.31,0.3c1.69,0.23,2.62,0.4,3.26,1.17
		C108.25,89.29,108.2,89.61,108,89.82 M89.24,81.78c0.21,0.03,0.37,0.07,0.37,0.29c0.01,0.26-0.39,0.31-0.46,0.33
		c-0.09,0.04-0.34,0.03-0.38-0.07C88.65,81.98,88.87,81.73,89.24,81.78 M88.5,81.04c-0.1-0.14-0.06-0.4-0.01-0.42
		c0.06-0.02,0.38-0.2,0.53-0.1c0.09,0.08,0.19,0.23,0.14,0.34C89.06,81.07,88.67,81.23,88.5,81.04 M89.17,82.97
		c0.07-0.23,1.08,0.09,1.16-0.62c0.02-0.15,0.21,0.13,0.52,0.26c0.3,0.14,1.19-0.32,1.73-0.24c0.04,0.02,0.8,4.14,0.65,4.75
		l-1.72,0.29c-0.06-2.07-1.01-4.17-1.5-4.18C89.56,83.21,89.05,83.42,89.17,82.97 M87.92,78.55c-0.01,0.01-0.02-0.07-0.03-0.17
		c0.22-0.04,0.45-0.08,0.67-0.12c-0.02,0.1-0.03,0.19-0.12,0.26C88.27,78.64,88.02,78.52,87.92,78.55 M90.13,56.51
		c2.93-0.78,5.87,1.38,6.57,2.74c0.09,0.18,0.14,0.35,0.14,0.46c0,0.06-0.02,0.1-0.05,0.13c-0.02,0.02-0.05,0.04-0.06,0.06
		c0,0-6.73,7.77-7.43,8.56c-1.32-1.8-2.8-2.9-4.33-3.12c-0.56-0.09-1.1-0.04-1.64,0.11C85.16,63.06,89.95,56.76,90.13,56.51
		 M81.18,71.02c0-0.82,0.1-1.57,0.29-2.23c0.21-0.72,0.52-1.35,0.93-1.87c0.8-0.54,1.62-0.75,2.45-0.63c1.39,0.2,2.78,1.31,4.04,3.2
		c0.08,0.12,0.22,0.2,0.37,0.21c0.15,0.01,0.29-0.05,0.39-0.16l2.12-2.44c0.04,1.4,0.24,2.81,0.68,4.17c0.5,1.54,1.39,3.2,2.89,4.62
		c-0.28,0.06-0.55,0.13-0.85,0.21c-0.71,0.19-1.6,0.42-3.24,0.71l-0.84,0.15c-0.96,0.17-1.98,0.35-3.04,0.53
		c-0.16-0.01-0.37,0.02-0.64,0.11v0c-1.1,0.19-2.23,0.38-3.4,0.57C81.83,75.61,81.18,73.09,81.18,71.02 M86.99,81l0.11-0.08
		c0.13-0.03,0.31-0.21,0.45-0.07c0.15,0.16,0.14,0.44,0.02,0.57c-0.16,0.18-0.55,0.08-0.67-0.09C86.82,81.21,86.95,81.08,86.99,81
		 M86.52,79.1c-0.05-0.03-0.03-0.41-0.17-0.46c0.24-0.04,0.47-0.08,0.7-0.12c0.04,0.2,0.05,0.4-0.04,0.52
		C86.92,79.19,86.66,79.19,86.52,79.1 M87.07,82.18c0.16-0.11,0.57-0.14,0.66,0.06c0.05,0.1,0.12,0.23,0.05,0.33
		c-0.09,0.11-0.41,0.21-0.56,0.17C87.18,82.74,86.66,82.47,87.07,82.18 M69.74,83.58c0.22,0.09,0.55,0.09,0.68-0.08
		c0.22-0.26-0.12-0.96,0.27-0.99c1.15-0.1,1.65,0.54,1.96,0.93c0.08,0.11-1.65,1.52-2.16,2.35c-0.58-0.42-1.57-0.6-2.31-0.83
		c0,0-0.12-0.48,0.24-0.89c0.46,0.46,0.99,1.02,1.77,1.02c0.81-0.01,1.86-1.55,1.5-1.82c-0.57-0.4-0.98,1.54-2.02,0.86
		c-0.37-0.25-0.97-1.01-0.28-1.12C69.62,82.95,69.49,83.47,69.74,83.58 M51.17,80.66c1.12,0.14,2.22,0.25,3.3,0.36
		c-0.75,0.76,0.23,2.49-0.91,3.12c-0.19-0.45-0.56-0.36-0.87-0.27c-0.45,0.11-0.39,0.68-0.24,0.84c0.44,0.44,1.71,0.29,1.37,1.3
		c-0.24,0.7-0.72,1.36-1.37,0.86c-1.29-1.01-1.25-2.72-0.79-4.33c0.05-0.15,0-0.86-0.39-1.24C51.11,81.14,51.08,80.81,51.17,80.66
		 M50.34,81.65c0.19,0.21,0.43,0.39,0.56,0.64c0.31,0.61-0.27,0.87-0.56,1.24c-0.26-0.38-0.63-0.76-0.53-1.24
		C49.87,82.03,50.14,81.85,50.34,81.65 M27.52,59.9c-0.02-0.02-0.05-0.04-0.07-0.06c-0.02-0.03-0.04-0.07-0.04-0.13
		c0-0.11,0.05-0.28,0.15-0.46c0.7-1.37,3.63-3.52,6.56-2.74c0.19,0.25,4.98,6.56,6.8,8.95c-0.54-0.14-1.09-0.19-1.65-0.11
		c-1.52,0.22-3,1.32-4.32,3.12C34.25,67.67,27.52,59.9,27.52,59.9 M31.8,71.28c0.45-1.36,0.65-2.78,0.69-4.17l2.12,2.44
		c0.1,0.11,0.24,0.17,0.4,0.16c0.15-0.01,0.29-0.09,0.37-0.21c1.26-1.89,2.65-3,4.04-3.2c0.83-0.12,1.65,0.09,2.45,0.63
		c0.41,0.51,0.72,1.14,0.93,1.87c0.19,0.66,0.29,1.4,0.29,2.23c0,2.07-0.66,4.59-2.13,7.16c-2.54-0.42-4.96-0.85-7.08-1.22
		l-0.84-0.15c-1.65-0.29-2.54-0.52-3.24-0.71c-0.3-0.08-0.57-0.14-0.85-0.21C30.42,74.48,31.3,72.81,31.8,71.28 M1.14,84.83
		c0.08-1.03,0.44-1.74,1.13-2.24c1.81-1.32,6.09-1.23,12.71,0.28c-0.1,2.79-0.1,4.31-0.04,5.14c0.06,0.99,0.2,2.06,0.59,2.46
		c0.87,0.91,2.59,0.81,4.28,0.68c1.21-0.09,2.59-0.19,3,0.23c0.06,0.06,0.15,0.19,0.13,0.5c-0.03,0.46-0.2,0.79-0.51,1
		c-1.36,0.96-5.14-0.07-8.19-0.9c-1.37-0.37-2.66-0.72-3.71-0.91c-3.45-0.59-7.3-1.11-9.2,0.39c-0.13,0.1-0.24,0.22-0.35,0.34
		C0.92,89.62,1,86.58,1.14,84.83 M16.06,88.84c0.64-0.77,1.57-0.94,3.26-1.17c1.16-0.16,2.26-0.26,3.31-0.3
		c0.28,0.26,0.57,1.15,0.6,2.43c0.01,0.24,0,0.47-0.01,0.69c-0.79-0.49-2.09-0.4-3.48-0.3c-1.39,0.1-2.97,0.21-3.5-0.37
		C16.06,89.61,16,89.29,16.06,88.84 M6.51,96.91c-2.91-0.5-5.11-1.78-5.37-3.12c0.06-0.69,0.31-1.21,0.78-1.58
		c1.52-1.19,4.95-0.8,8.44-0.19c1.01,0.17,2.28,0.52,3.62,0.89c3.58,0.98,7.28,1.99,9,0.77c0.05-0.04,0.08-0.07,0.12-0.11
		c0.01-0.01,0.02-0.01,0.03-0.01c0.84-0.59,1.1-2.33,1.06-3.77c-0.01-0.55-0.1-1.62-0.45-2.43c3.61-0.01,6.78,0.64,10.35,1.47
		C24.12,97.18,11.87,97.83,6.51,96.91 M49.01,90.62c-5.57-0.62-9.78-1.6-13.43-2.46c-1.97-0.46-3.79-0.88-5.59-1.2
		c-0.02-2.19,0.53-4.56,0.19-6.75c-0.01-0.05-0.49-0.01-0.78-0.01c0.11,2.12-0.62,4.42-0.48,6.58c-3.01-0.46-6.06-0.6-9.74-0.08
		c-1.33,0.19-2.44,0.36-3.3,0.99c-0.01-0.27-0.02-0.61-0.02-1.1c0-1.29,0.05-3.44,0.21-7.03l0.01-0.26c0.11-2.62,3.9-3.06,7.05-2.96
		c4.32,0.14,5.06,0.33,6.4,0.68c0.72,0.19,1.61,0.42,3.27,0.71c0.09,0.05,0.19,0.1,0.27,0.14c0.78,0.28,1.42,1.85,1.44,2.89
		c0.06,2.13-1.04,4.33-0.12,6.42c0.04,0.07,0.34,0.02,0.53,0.02c-0.47-2.72,1.54-5.65,0.05-8.24c-0.11-0.19-0.06-0.7,0.15-0.83
		c4.37,0.76,9.7,1.68,14.83,2.35c-0.29,0.32-0.88,1.1-1.01,1.46c-0.4,1.16,0.6,2.3-0.26,3.5c-0.37,0.53,0.42,1.34,0.31,1.75
		c-0.21,0.86-1.81,1.56-1.13,2.41c0.55,0.67,0.85-1.14,1.24-0.95C49.72,88.98,49.28,90.29,49.01,90.62 M50.1,84.91
		c0.34-0.12,0.62,0.68,0.75,1.14c0.09,0.28-0.25,0.87-0.48,0.8C49.48,86.59,49.13,85.27,50.1,84.91 M69.18,91.06
		c0,0.02,0.02,0.03,0.02,0.05c-1.89,0.1-3.93,0.15-6.11,0.15c-0.33,0-0.64-0.01-0.97-0.01c-0.32,0-0.64,0.01-0.96,0.01
		c-4.16,0-7.74-0.2-10.91-0.51c-0.1-0.28-0.27-1.22,0.09-1.25c0.47-0.04,1.1,0.58,1.35,0.18c0.59-0.93-0.6-1.61-1.36-2.11
		c0.19-0.21,0.48-0.59,0.55-0.55c1.27,0.79,3.49,1.03,3.72-0.72c0.21-1.65,1.23-3.47,0.33-5.14c-0.01-0.04-0.01-0.08-0.02-0.11
		c2.24,0.21,4.38,0.33,6.25,0.33c0.31,0,0.64-0.01,0.96-0.02c0.32,0.01,0.65,0.02,0.97,0.02c1.87,0,3.98-0.12,6.22-0.33l0.02,0.14
		c0,0.21,0.32,0.83-0.53,0.92c-1.88,0.18-2.48,4.73-1.47,4.76c0.7,0.04,0.35-0.74,0.51-1.09c0.07-0.16,1.56,0.34,2.11,0.8
		c-0.5,0.91-0.68,1.97-0.76,3.03C69.18,90.01,69.21,90.96,69.18,91.06 M70.03,91.06v-0.21c0.12-1.05,0.25-2.65,0.57-3.22
		c0.41-0.7,1.01,0.57,1.07,0.73c0.21,0.6,0.71,2.14,0.73,2.54C71.63,90.96,70.84,91.02,70.03,91.06 M88.68,88.17
		c-4.08,0.95-8.86,2.07-15.47,2.66c0.07-0.07,0.09-0.15,0.06-0.25c0,0-0.34-2.86-1.98-4.28c0.51-0.6,1.49-1.87,1.89-1.82
		c0.23,0.02,0.05,1.16,0.25,1.32c0.13,0.1,0.79,0.11,0.81-0.07c0.12-1.21-0.59-4.4-3.71-4.06l0.07-0.56l0.01-0.16
		c4.9-0.51,10.29-1.36,15.03-2.17c-0.14,0.06-0.24,0.15-0.23,0.31c0.02,0.63,0.69,0.91,1.21,0.82c0.15-0.03,0.13,0.33,0.01,0.47
		c-0.2,0.21-0.91,0.35-0.85,1.17c0.17,2.77,2.05,1.42,2.16,1.71c0.21,0.55-1.15,0.25-1.15,0.76c0.01,0.7,1.61-0.06,1.66,0.11
		c0.24,0.78-1.86,0.27-1.85,1.02c0.02,0.78,2.13-0.04,2.15,0.12c0.19,0.77-1.2,0.25-1.17,1c0.02,0.32,0.53,0.28,0.79,0.21
		c0.58-0.17,1.15-0.35,1.61-0.74c0.21,0.2,0.29,0.48,0.39,0.73c0.13,0.36,0.06,0.74,0.13,1.16c-0.01,0.05,0,0.09,0.01,0.14
		C89.91,87.88,89.3,88.03,88.68,88.17 M117.74,96.91c-5.36,0.91-17.61,0.27-27.58-8.1c3.58-0.82,6.74-1.47,10.35-1.47
		c-0.36,0.81-0.44,1.88-0.46,2.43c-0.04,1.44,0.22,3.18,1.06,3.77c0.01,0.01,0.02,0.01,0.04,0.01c0.04,0.03,0.07,0.07,0.11,0.11
		c1.73,1.22,5.43,0.21,9.01-0.77c1.35-0.36,2.61-0.71,3.62-0.89c3.48-0.6,6.92-0.99,8.43,0.19c0.48,0.38,0.73,0.89,0.79,1.58
		C122.84,95.13,120.65,96.41,117.74,96.91 M123.27,91.79c-0.11-0.12-0.22-0.24-0.35-0.34c-1.9-1.5-5.75-0.98-9.19-0.39
		c-1.06,0.18-2.35,0.54-3.71,0.91c-3.05,0.83-6.84,1.86-8.19,0.9c-0.32-0.22-0.48-0.54-0.51-1c-0.02-0.31,0.06-0.43,0.13-0.5
		c0.41-0.42,1.79-0.32,3-0.23c1.69,0.13,3.41,0.23,4.28-0.68c0.39-0.4,0.53-1.47,0.59-2.46c0.07-0.83,0.06-2.35-0.03-5.14
		c6.61-1.5,10.89-1.6,12.7-0.28c0.69,0.5,1.06,1.22,1.14,2.24C123.25,86.58,123.34,89.62,123.27,91.79"/>
</g>
</svg>
